<svg xmlns="http://www.w3.org/2000/svg" width="48" height="48" viewBox="0 0 48 48" fill="none"><path d="M21.2477 14.7517C21.7164 15.2203 21.7164 15.9801 21.2477 16.4487L16.4477 21.2487C15.9791 21.7174 15.2193 21.7174 14.7507 21.2487L12.3507 18.8487C11.8821 18.3801 11.8821 17.6203 12.3507 17.1517C12.8193 16.683 13.5791 16.683 14.0477 17.1517L15.5992 18.7031L19.5507 14.7517C20.0193 14.283 20.7791 14.283 21.2477 14.7517ZM21.2477 26.7516C21.7164 27.2203 21.7164 27.9801 21.2477 28.4488L16.4477 33.2488C15.9791 33.7173 15.2193 33.7173 14.7507 33.2488L12.3507 30.8488C11.8821 30.3801 11.8821 29.6203 12.3507 29.1516C12.8193 28.6831 13.5791 28.6831 14.0477 29.1516L15.5992 30.7032L19.5507 26.7516C20.0193 26.2831 20.7791 26.2831 21.2477 26.7516ZM23.9992 18.0002C23.9992 17.3375 24.5366 16.8002 25.1992 16.8002H32.3992C33.0619 16.8002 33.5992 17.3375 33.5992 18.0002C33.5992 18.6629 33.0619 19.2002 32.3992 19.2002H25.1992C24.5366 19.2002 23.9992 18.6629 23.9992 18.0002ZM13.1992 7.2002C9.88551 7.2002 7.19922 9.88649 7.19922 13.2002V34.8002C7.19922 38.1139 9.88551 40.8002 13.1992 40.8002H23.0385C22.6499 40.0399 22.3328 39.2368 22.0961 38.4002H13.1992C11.211 38.4002 9.59922 36.7884 9.59922 34.8002V13.2002C9.59922 11.212 11.211 9.6002 13.1992 9.6002H34.7992C36.7874 9.6002 38.3992 11.212 38.3992 13.2002V22.0971C39.2359 22.3337 40.0389 22.6508 40.7992 23.0395V13.2002C40.7992 9.88649 38.1129 7.2002 34.7992 7.2002H13.1992ZM34.7992 45.6002C40.7639 45.6002 45.5992 40.7649 45.5992 34.8002C45.5992 28.8355 40.7639 24.0002 34.7992 24.0002C28.8345 24.0002 23.9992 28.8355 23.9992 34.8002C23.9992 40.7649 28.8345 45.6002 34.7992 45.6002ZM34.7992 28.8002C35.4619 28.8002 35.9992 29.3376 35.9992 30.0002V33.6002H39.5992C40.2619 33.6002 40.7992 34.1376 40.7992 34.8002C40.7992 35.4628 40.2619 36.0002 39.5992 36.0002H35.9992V39.6002C35.9992 40.2628 35.4619 40.8002 34.7992 40.8002C34.1366 40.8002 33.5992 40.2628 33.5992 39.6002V36.0002H29.9992C29.3366 36.0002 28.7992 35.4628 28.7992 34.8002C28.7992 34.1376 29.3366 33.6002 29.9992 33.6002H33.5992V30.0002C33.5992 29.3376 34.1366 28.8002 34.7992 28.8002Z" fill="#0080FF"></path></svg>