<svg xmlns="http://www.w3.org/2000/svg" width="48" height="48" viewBox="0 0 48 48" fill="none"><path d="M7 26L25.6174 26.0018C23.3768 28.3374 22 31.508 22 35C22 37.1746 22.534 39.2244 23.4778 41.0256C21.3776 41.726 19.0612 42 17 42C11.5557 42 4.3294 40.088 4.0109 33.4592L4 33V29C4 27.4414 5.19054 26.1592 6.71122 26.0138L7 26ZM42 15C42 18.866 38.866 22 35 22C31.134 22 28 18.866 28 15C28 11.134 31.134 8 35 8C38.866 8 42 11.134 42 15ZM17 4C21.97 4 26 8.03 26 13C26 17.97 21.97 22 17 22C12.03 22 8 17.97 8 13C8 8.03 12.03 4 17 4ZM28.5544 27.9508C29.184 30.1312 27.8752 32.3982 25.672 32.9432L24.5036 33.2322C24.4138 33.8076 24.3672 34.398 24.3672 34.9996C24.3672 35.629 24.4182 36.246 24.5164 36.8464L25.5952 37.1064C27.8204 37.6422 29.143 39.9322 28.4952 42.1272L28.1226 43.3898C29.001 44.161 30.0018 44.7874 31.091 45.233L32.0776 44.1954C33.6546 42.537 36.2992 42.5374 37.8758 44.1964L38.8732 45.246C39.9602 44.8054 40.9602 44.185 41.8388 43.4202L41.4428 42.0484C40.8132 39.8678 42.122 37.601 44.3252 37.056L45.4926 36.767C45.5824 36.1916 45.629 35.6012 45.629 34.9996C45.629 34.3702 45.578 33.753 45.4798 33.1524L44.4018 32.8928C42.1768 32.357 40.8542 30.067 41.502 27.8718L41.8742 26.6102C40.996 25.8386 39.995 25.2122 38.9058 24.7666L37.9196 25.8036C36.3426 27.4622 33.698 27.4618 32.1214 25.8026L31.1238 24.753C30.0368 25.1934 29.0368 25.8136 28.1582 26.5784L28.5544 27.9508ZM34.9982 37.9996C33.3968 37.9996 32.0988 36.6564 32.0988 34.9996C32.0988 33.3428 33.3968 31.9996 34.9982 31.9996C36.5994 31.9996 37.8974 33.3428 37.8974 34.9996C37.8974 36.6564 36.5994 37.9996 34.9982 37.9996Z" fill="#0080FF"></path></svg>