<svg xmlns="http://www.w3.org/2000/svg" width="48" height="48" viewBox="0 0 48 48" fill="none"><path d="M17.0064 7.1998C17.5006 5.80156 18.8341 4.7998 20.4016 4.7998H27.6016C29.169 4.7998 30.5024 5.80156 30.9966 7.1998H34.8016C36.7897 7.1998 38.4016 8.81157 38.4016 10.7998V24.9056C38.0108 24.5588 37.538 24.2919 37.0021 24.1388C36.6683 24.0432 36.332 23.9983 36.0016 23.9992V10.7998C36.0016 10.1371 35.4642 9.5998 34.8016 9.5998H30.9966C30.5024 10.998 29.169 11.9998 27.6016 11.9998H20.4016C18.8341 11.9998 17.5006 10.998 17.0064 9.5998H13.2016C12.5388 9.5998 12.0016 10.1371 12.0016 10.7998V39.5998C12.0016 40.2624 12.5388 40.7998 13.2016 40.7998H22.6976L23.6682 41.9321C24.3798 42.7625 25.3876 43.189 26.4016 43.1895V43.1998H13.2016C11.2133 43.1998 9.60156 41.588 9.60156 39.5998V10.7998C9.60156 8.81157 11.2133 7.1998 13.2016 7.1998H17.0064ZM20.4016 7.1998C19.7388 7.1998 19.2016 7.73707 19.2016 8.3998C19.2016 9.06254 19.7388 9.5998 20.4016 9.5998H27.6016C28.2642 9.5998 28.8016 9.06254 28.8016 8.3998C28.8016 7.73707 28.2642 7.1998 27.6016 7.1998H20.4016Z" fill="#0080FF"></path><path d="M37.1658 27.9299C37.348 27.2927 36.9789 26.6283 36.3417 26.4464C35.7045 26.2643 35.0404 26.6334 34.8582 27.2706L30.0582 44.0706C29.8761 44.7078 30.2452 45.3719 30.8824 45.554C31.5196 45.7362 32.1839 45.3671 32.3658 44.7299L37.1658 27.9299Z" fill="#0080FF"></path><path d="M27.3126 31.9706C27.7439 31.4674 27.6858 30.7099 27.1825 30.2786C26.6792 29.8474 25.9218 29.9057 25.4905 30.4087L21.8904 34.6087C21.5053 35.0582 21.5053 35.7214 21.8904 36.1706L25.4905 40.3706C25.9218 40.8739 26.6792 40.9322 27.1825 40.5007C27.6858 40.0694 27.7439 39.312 27.3126 38.8087L24.382 35.3897L27.3126 31.9706Z" fill="#0080FF"></path><path d="M40.0206 40.5009C39.5173 40.0696 39.4592 39.312 39.8905 38.8089L42.8212 35.3899L39.8905 31.9709C39.4592 31.4676 39.5173 30.7099 40.0206 30.2786C40.5239 29.8473 41.2813 29.9056 41.7126 30.4089L45.3126 34.6089C45.6978 35.0582 45.6978 35.7213 45.3126 36.1709L41.7126 40.3709C41.2813 40.8739 40.5239 40.9322 40.0206 40.5009Z" fill="#0080FF"></path></svg>