<svg xmlns="http://www.w3.org/2000/svg" width="49" height="49" viewBox="0 0 49 49" fill="none"><g clip-path="url(#clip0_257_9)"><path d="M39.2129 25.0191L18.0149 39.1511C17.8643 39.2514 17.6894 39.3088 17.5087 39.3175C17.328 39.3261 17.1484 39.2856 16.9889 39.2002C16.8295 39.1149 16.6961 38.9878 16.6032 38.8327C16.5102 38.6775 16.461 38.5 16.4609 38.3191V10.0551C16.461 9.87426 16.5102 9.69679 16.6032 9.54163C16.6961 9.38648 16.8295 9.25944 16.9889 9.17407C17.1484 9.08869 17.328 9.04816 17.5087 9.05681C17.6894 9.06545 17.8643 9.12294 18.0149 9.22315L39.2129 23.3551C39.3499 23.4465 39.4622 23.5702 39.5399 23.7153C39.6175 23.8605 39.6582 24.0225 39.6582 24.1871C39.6582 24.3518 39.6175 24.5138 39.5399 24.659C39.4622 24.8041 39.3499 24.9278 39.2129 25.0191Z" fill="white"></path></g><defs><clipPath id="clip0_257_9"><rect width="48" height="48" fill="white" transform="translate(0.460938 0.1875)"></rect></clipPath></defs></svg>