<svg xmlns="http://www.w3.org/2000/svg" width="48" height="48" viewBox="0 0 48 48" fill="none"><path d="M11.9992 7.2C9.34825 7.2 7.19922 9.34903 7.19922 12V36C7.19922 38.651 9.34825 40.8 11.9992 40.8H22.1283L22.6351 38.7727C22.6665 38.6474 22.7009 38.5231 22.7384 38.4H11.9992C10.6737 38.4 9.59922 37.3255 9.59922 36V12C9.59922 10.6745 10.6737 9.6 11.9992 9.6H35.9992C37.3247 9.6 38.3992 10.6745 38.3992 12V22.1559C39.1658 21.8274 39.9799 21.6445 40.7992 21.6072V12C40.7992 9.34903 38.6503 7.2 35.9992 7.2H11.9992ZM22.7992 33.6H26.2617L28.6617 31.2H22.7992C22.1365 31.2 21.5992 31.7374 21.5992 32.4C21.5992 33.0626 22.1365 33.6 22.7992 33.6ZM17.9992 17.4C17.9992 18.3941 17.1933 19.2 16.1992 19.2C15.2051 19.2 14.3992 18.3941 14.3992 17.4C14.3992 16.4059 15.2051 15.6 16.1992 15.6C17.1933 15.6 17.9992 16.4059 17.9992 17.4ZM16.1992 26.4C17.1933 26.4 17.9992 25.5941 17.9992 24.6C17.9992 23.6059 17.1933 22.8 16.1992 22.8C15.2051 22.8 14.3992 23.6059 14.3992 24.6C14.3992 25.5941 15.2051 26.4 16.1992 26.4ZM16.1992 33.6C17.1933 33.6 17.9992 32.7941 17.9992 31.8C17.9992 30.8059 17.1933 30 16.1992 30C15.2051 30 14.3992 30.8059 14.3992 31.8C14.3992 32.7941 15.2051 33.6 16.1992 33.6ZM22.7992 16.8C22.1365 16.8 21.5992 17.3373 21.5992 18C21.5992 18.6627 22.1365 19.2 22.7992 19.2H32.3992C33.0619 19.2 33.5992 18.6627 33.5992 18C33.5992 17.3373 33.0619 16.8 32.3992 16.8H22.7992ZM22.7992 24C22.1365 24 21.5992 24.5374 21.5992 25.2C21.5992 25.8626 22.1365 26.4 22.7992 26.4H32.3992C33.0619 26.4 33.5992 25.8626 33.5992 25.2C33.5992 24.5374 33.0619 24 32.3992 24H22.7992ZM26.3507 36.9053L37.9413 25.3147C39.694 23.5618 42.5361 23.5618 44.2888 25.3147C46.0415 27.0674 46.0415 29.9093 44.2888 31.6622L32.6983 43.2528C32.0224 43.9286 31.1757 44.4079 30.2486 44.6398L26.6536 45.5386C25.0903 45.9293 23.674 44.5133 24.065 42.9499L24.9635 39.355C25.1954 38.4278 25.6749 37.5811 26.3507 36.9053Z" fill="#0080FF"></path></svg>