<svg xmlns="http://www.w3.org/2000/svg" width="48" height="48" viewBox="0 0 48 48" fill="none"><path d="M21.6008 5.99999C21.6008 5.33725 21.0635 4.79999 20.4008 4.79999C19.738 4.79999 19.2008 5.33725 19.2008 5.99999V7.19999C19.2008 8.15317 19.4786 9.04148 19.9577 9.78832C16.773 10.5317 14.4008 13.3888 14.4008 16.8H13.2008C11.2125 16.8 9.60078 15.1882 9.60078 13.2V8.39999C9.60078 7.73725 9.06352 7.19999 8.40078 7.19999C7.73805 7.19999 7.20078 7.73725 7.20078 8.39999V13.2C7.20078 16.5137 9.88708 19.2 13.2008 19.2H14.4008V22.8H6.00078C5.33805 22.8 4.80078 23.3373 4.80078 24C4.80078 24.6626 5.33805 25.2 6.00078 25.2H14.4008V28.8H13.2008C9.88708 28.8 7.20078 31.4863 7.20078 34.8V39.6C7.20078 40.2626 7.73805 40.8 8.40078 40.8C9.06352 40.8 9.60078 40.2626 9.60078 39.6V34.8C9.60078 32.8118 11.2125 31.2 13.2008 31.2H14.4008C14.4008 36.5018 18.6988 40.8 24.0008 40.8C29.3026 40.8 33.6008 36.5018 33.6008 31.2H34.8008C36.7889 31.2 38.4008 32.8118 38.4008 34.8V39.6C38.4008 40.2626 38.9381 40.8 39.6008 40.8C40.2634 40.8 40.8008 40.2626 40.8008 39.6V34.8C40.8008 31.4863 38.1145 28.8 34.8008 28.8H33.6008V25.2H42.0008C42.6634 25.2 43.2008 24.6626 43.2008 24C43.2008 23.3373 42.6634 22.8 42.0008 22.8H33.6008V19.2H34.8008C38.1145 19.2 40.8008 16.5137 40.8008 13.2V8.39999C40.8008 7.73725 40.2634 7.19999 39.6008 7.19999C38.9381 7.19999 38.4008 7.73725 38.4008 8.39999V13.2C38.4008 15.1882 36.7889 16.8 34.8008 16.8H33.6008C33.6008 13.3888 31.2286 10.5317 28.0438 9.78832C28.5229 9.04148 28.8008 8.15317 28.8008 7.19999V5.99999C28.8008 5.33725 28.2634 4.79999 27.6008 4.79999C26.9381 4.79999 26.4008 5.33725 26.4008 5.99999V7.19999C26.4008 8.52546 25.3263 9.59999 24.0008 9.59999C22.6753 9.59999 21.6008 8.52546 21.6008 7.19999V5.99999ZM31.2008 16.8V31.2C31.2008 35.1765 27.9773 38.4 24.0008 38.4C20.0243 38.4 16.8008 35.1765 16.8008 31.2V16.8C16.8008 14.149 18.9498 12 21.6008 12H26.4008C29.0518 12 31.2008 14.149 31.2008 16.8Z" fill="#0080FF"></path></svg>