<svg xmlns="http://www.w3.org/2000/svg" width="48" height="48" viewBox="0 0 48 48" fill="none"><path d="M14.4 5.9998C14.4 5.33707 13.8627 4.7998 13.2 4.7998C12.5373 4.7998 12 5.33707 12 5.9998V10.7998C12 12.788 13.6118 14.3998 15.6 14.3998H16.1037L12.6018 21.7929C11.7522 23.5863 11.8444 25.6836 12.848 27.3958L21.1579 41.5714C21.7492 42.5801 22.8308 43.1998 24 43.1998C25.1693 43.1998 26.2507 42.5801 26.8421 41.5714L35.1521 27.3958C36.1555 25.6836 36.2477 23.5863 35.3983 21.7929L31.8962 14.3998H32.4C34.3882 14.3998 36 12.788 36 10.7998V5.9998C36 5.33707 35.4626 4.7998 34.8 4.7998C34.1374 4.7998 33.6 5.33707 33.6 5.9998V10.7998C33.6 11.4625 33.0626 11.9998 32.4 11.9998H15.6C14.9373 11.9998 14.4 11.4625 14.4 10.7998V5.9998ZM29.2406 14.3998L33.2292 22.8203C33.739 23.8964 33.6835 25.1549 33.0816 26.1821L25.2 39.6269V26.0787C25.9174 25.6637 26.4 24.888 26.4 23.9998C26.4 22.6743 25.3255 21.5998 24 21.5998C22.6745 21.5998 21.6 22.6743 21.6 23.9998C21.6 24.888 22.0826 25.6637 22.8 26.0787V39.6269L14.9185 26.1821C14.3163 25.1549 14.261 23.8964 14.7707 22.8203L18.7594 14.3998H29.2406Z" fill="#0080FF"></path></svg>