<svg xmlns="http://www.w3.org/2000/svg" width="48" height="48" viewBox="0 0 48 48" fill="none"><path d="M42.5 39C43.3284 39 44 39.6716 44 40.5C44 41.2594 43.4356 41.887 42.7036 41.9864L42.5 42H5.5C4.67158 42 4 41.3284 4 40.5C4 39.7406 4.5643 39.113 5.29646 39.0136L5.5 39H42.5ZM39.4908 6C41.976 6 43.9908 8.01472 43.9908 10.5V29.5092C43.9908 31.9944 41.976 34.0092 39.4908 34.0092L26.448 34.01C26.2124 35.1462 25.206 36 24 36C22.794 36 21.7876 35.1462 21.552 34.01L8.5 34.0092C6.01472 34.0092 4 31.9944 4 29.5092V10.5C4 8.01472 6.01472 6 8.5 6H39.4908ZM39.4908 9H8.5C7.67158 9 7 9.67158 7 10.5V29.5092C7 30.3376 7.67158 31.0092 8.5 31.0092H39.4908C40.3192 31.0092 40.9908 30.3376 40.9908 29.5092V10.5C40.9908 9.67158 40.3192 9 39.4908 9ZM34.5 25C35.3284 25 36 25.6716 36 26.5C36 27.2594 35.4356 27.887 34.7036 27.9864L34.5 28H13.5C12.6716 28 12 27.3284 12 26.5C12 25.7406 12.5643 25.113 13.2965 25.0136L13.5 25H34.5ZM33 18C34.1046 18 35 18.8954 35 20C35 21.1046 34.1046 22 33 22C31.8954 22 31 21.1046 31 20C31 18.8954 31.8954 18 33 18ZM21.0098 18C22.1144 18 23.0098 18.8954 23.0098 20C23.0098 21.1046 22.1144 22 21.0098 22C19.9052 22 19.0098 21.1046 19.0098 20C19.0098 18.8954 19.9052 18 21.0098 18ZM15.0098 18C16.1143 18 17.0098 18.8954 17.0098 20C17.0098 21.1046 16.1143 22 15.0098 22C13.9052 22 13.0098 21.1046 13.0098 20C13.0098 18.8954 13.9052 18 15.0098 18ZM27.0098 18C28.1144 18 29.0098 18.8954 29.0098 20C29.0098 21.1046 28.1144 22 27.0098 22C25.9052 22 25.0098 21.1046 25.0098 20C25.0098 18.8954 25.9052 18 27.0098 18ZM12 12C13.1046 12 14 12.8954 14 14C14 15.1046 13.1046 16 12 16C10.8954 16 10 15.1046 10 14C10 12.8954 10.8954 12 12 12ZM17.9902 12C19.0948 12 19.9902 12.8954 19.9902 14C19.9902 15.1046 19.0948 16 17.9902 16C16.8857 16 15.9902 15.1046 15.9902 14C15.9902 12.8954 16.8857 12 17.9902 12ZM23.9902 12C25.0948 12 25.9902 12.8954 25.9902 14C25.9902 15.1046 25.0948 16 23.9902 16C22.8856 16 21.9902 15.1046 21.9902 14C21.9902 12.8954 22.8856 12 23.9902 12ZM29.9902 12C31.0948 12 31.9902 12.8954 31.9902 14C31.9902 15.1046 31.0948 16 29.9902 16C28.8856 16 27.9902 15.1046 27.9902 14C27.9902 12.8954 28.8856 12 29.9902 12ZM35.9902 12C37.0948 12 37.9902 12.8954 37.9902 14C37.9902 15.1046 37.0948 16 35.9902 16C34.8856 16 33.9902 15.1046 33.9902 14C33.9902 12.8954 34.8856 12 35.9902 12Z" fill="#0080FF"></path></svg>