<svg xmlns="http://www.w3.org/2000/svg" width="48" height="48" viewBox="0 0 48 48" fill="none"><path d="M17.9984 20.999C17.9984 21.9931 17.1925 22.799 16.1984 22.799C15.2043 22.799 14.3984 21.9931 14.3984 20.999C14.3984 20.0049 15.2043 19.199 16.1984 19.199C17.1925 19.199 17.9984 20.0049 17.9984 20.999Z" fill="#0080FF"></path><path d="M22.1984 22.799C23.1925 22.799 23.9984 21.9931 23.9984 20.999C23.9984 20.0049 23.1925 19.199 22.1984 19.199C21.2043 19.199 20.3984 20.0049 20.3984 20.999C20.3984 21.9931 21.2043 22.799 22.1984 22.799Z" fill="#0080FF"></path><path d="M17.9984 26.9991C17.9984 27.9932 17.1925 28.7991 16.1984 28.7991C15.2043 28.7991 14.3984 27.9932 14.3984 26.9991C14.3984 26.005 15.2043 25.1991 16.1984 25.1991C17.1925 25.1991 17.9984 26.005 17.9984 26.9991Z" fill="#0080FF"></path><path d="M22.1984 28.7991C23.1925 28.7991 23.9984 27.9932 23.9984 26.9991C23.9984 26.005 23.1925 25.1991 22.1984 25.1991C21.2043 25.1991 20.3984 26.005 20.3984 26.9991C20.3984 27.9932 21.2043 28.7991 22.1984 28.7991Z" fill="#0080FF"></path><path d="M34.7992 34.199C34.7992 35.1931 33.9933 35.999 32.9992 35.999C32.0051 35.999 31.1992 35.1931 31.1992 34.199C31.1992 33.205 32.0051 32.399 32.9992 32.399C33.9933 32.399 34.7992 33.205 34.7992 34.199Z" fill="#0080FF"></path><path d="M32.9992 29.999C33.9933 29.999 34.7992 29.1931 34.7992 28.199C34.7992 27.205 33.9933 26.399 32.9992 26.399C32.0051 26.399 31.1992 27.205 31.1992 28.199C31.1992 29.1931 32.0051 29.999 32.9992 29.999Z" fill="#0080FF"></path><path d="M16.8016 4.78833C16.1388 4.78833 15.6016 5.32557 15.6016 5.98833V9.59474H13.334C12.6712 9.59474 12.134 10.132 12.134 10.7947V14.9673C10.6266 15.7768 9.60156 17.3682 9.60156 19.199V39.595C9.60156 40.2576 10.1388 40.795 10.8016 40.795H27.5017C27.5346 40.7976 27.568 40.7991 27.6016 40.7991H39.6016C40.2642 40.7991 40.8016 40.2617 40.8016 39.5991V29.9991C40.8016 24.0344 35.9663 19.199 30.0016 19.199H28.8016C28.8016 17.4776 27.8953 15.9678 26.534 15.1206V10.7947C26.534 10.132 25.9967 9.59474 25.334 9.59474H22.8016V5.98833C22.8016 5.32557 22.2643 4.78833 21.6016 4.78833H16.8016ZM24.0016 14.399H14.534V11.9947H16.7921L16.8016 11.9948H21.6016L21.611 11.9947H24.134V14.4008C24.0899 14.3996 24.046 14.399 24.0016 14.399ZM26.4016 38.395H24.0016V33.6096C24.0016 32.2841 22.927 31.2096 21.6016 31.2096H16.8016C15.4761 31.2096 14.4016 32.2841 14.4016 33.6096V38.395H12.0016V19.199C12.0016 17.8735 13.0761 16.799 14.4016 16.799H24.0016C25.3271 16.799 26.4016 17.8735 26.4016 19.199V38.395ZM16.8016 38.395V33.6096H21.6016V38.395H16.8016ZM38.4016 38.3991H28.8016V21.599H30.0016C34.6408 21.599 38.4016 25.3599 38.4016 29.9991V38.3991ZM20.4016 9.59474H18.0016V7.18833H20.4016V9.59474Z" fill="#0080FF"></path></svg>