<svg xmlns="http://www.w3.org/2000/svg" width="48" height="48" viewBox="0 0 48 48" fill="none"><path d="M28.7005 14.881C28.9661 14.2739 28.6892 13.5663 28.082 13.3007C27.4748 13.035 26.7673 13.3119 26.5016 13.9191L18.1017 33.1191C17.836 33.7263 18.1129 34.4338 18.7201 34.6995C19.3273 34.9652 20.0348 34.6882 20.3005 34.081L28.7005 14.881ZM16.4493 18.3515C16.9179 18.8202 16.9179 19.5799 16.4493 20.0486L12.4978 24L16.4493 27.9514C16.9179 28.4201 16.9179 29.18 16.4493 29.6487C15.9807 30.1172 15.2209 30.1172 14.7523 29.6487L9.95226 24.8487C9.48361 24.38 9.48361 23.6202 9.95226 23.1515L14.7523 18.3515C15.2209 17.8829 15.9807 17.8829 16.4493 18.3515ZM31.5521 20.0486C31.0837 19.5799 31.0837 18.8202 31.5521 18.3515C32.0209 17.8829 32.7807 17.8829 33.2494 18.3515L38.0494 23.1515C38.5179 23.6202 38.5179 24.38 38.0494 24.8487L33.2494 29.6487C32.7807 30.1172 32.0209 30.1172 31.5521 29.6487C31.0837 29.18 31.0837 28.4201 31.5521 27.9514L35.5037 24L31.5521 20.0486ZM24.0008 4.80005C13.3969 4.80005 4.80078 13.3962 4.80078 24C4.80078 34.604 13.3969 43.2001 24.0008 43.2001C34.6047 43.2001 43.2008 34.604 43.2008 24C43.2008 13.3962 34.6047 4.80005 24.0008 4.80005ZM7.20078 24C7.20078 14.7217 14.7224 7.20005 24.0008 7.20005C33.2792 7.20005 40.8008 14.7217 40.8008 24C40.8008 33.2784 33.2792 40.8001 24.0008 40.8001C14.7224 40.8001 7.20078 33.2784 7.20078 24Z" fill="white"></path></svg>