<svg xmlns="http://www.w3.org/2000/svg" width="48" height="48" viewBox="0 0 48 48" fill="none"><path d="M9.60156 9.60005C9.60156 6.94908 11.7506 4.80005 14.4016 4.80005H33.6016C36.2526 4.80005 38.4016 6.94908 38.4016 9.60005V33.3193L36.0016 35.7432V9.60005C36.0016 8.27458 34.9271 7.20005 33.6016 7.20005H14.4016C13.0761 7.20005 12.0016 8.27458 12.0016 9.60005V38.4001C12.0016 39.7256 13.0761 40.8001 14.4016 40.8001H24.2065C24.376 41.2805 24.6508 41.7325 25.0309 42.1203L26.0896 43.2001H14.4016C11.7506 43.2001 9.60156 41.0511 9.60156 38.4001V9.60005Z" fill="#0080FF"></path><path d="M19.1984 13.2C19.1984 14.5255 18.1239 15.6 16.7984 15.6C15.473 15.6 14.3984 14.5255 14.3984 13.2C14.3984 11.8746 15.473 10.8 16.7984 10.8C18.1239 10.8 19.1984 11.8746 19.1984 13.2Z" fill="#0080FF"></path><path d="M22.8016 12C22.1388 12 21.6016 12.5373 21.6016 13.2C21.6016 13.8627 22.1388 14.4 22.8016 14.4H32.4016C33.0642 14.4 33.6016 13.8627 33.6016 13.2C33.6016 12.5373 33.0642 12 32.4016 12H22.8016Z" fill="#0080FF"></path><path d="M22.8016 21.6C22.1388 21.6 21.6016 22.1372 21.6016 22.8C21.6016 23.4627 22.1388 24 22.8016 24H32.4016C33.0642 24 33.6016 23.4627 33.6016 22.8C33.6016 22.1372 33.0642 21.6 32.4016 21.6H22.8016Z" fill="#0080FF"></path><path d="M21.6016 32.4C21.6016 31.7373 22.1388 31.2 22.8016 31.2H32.4016C33.0642 31.2 33.6016 31.7373 33.6016 32.4C33.6016 33.0626 33.0642 33.6 32.4016 33.6H22.8016C22.1388 33.6 21.6016 33.0626 21.6016 32.4Z" fill="#0080FF"></path><path d="M16.7984 25.2C18.1239 25.2 19.1984 24.1255 19.1984 22.8C19.1984 21.4746 18.1239 20.4 16.7984 20.4C15.473 20.4 14.3984 21.4746 14.3984 22.8C14.3984 24.1255 15.473 25.2 16.7984 25.2Z" fill="#0080FF"></path><path d="M16.7984 34.8C18.1239 34.8 19.1984 33.7255 19.1984 32.4C19.1984 31.0745 18.1239 30 16.7984 30C15.473 30 14.3984 31.0745 14.3984 32.4C14.3984 33.7255 15.473 34.8 16.7984 34.8Z" fill="#0080FF"></path><path d="M42.8512 35.6443C43.3175 35.1734 43.3136 34.4136 42.8428 33.9472C42.3719 33.4809 41.612 33.4848 41.1457 33.9556L32.4028 42.7862L28.4552 38.76C27.9913 38.2867 27.2315 38.279 26.7584 38.7432C26.2852 39.2071 26.2775 39.9669 26.7416 40.44L31.371 45.1622C31.9336 45.736 32.8571 45.7382 33.4225 45.1672L42.8512 35.6443Z" fill="#0080FF"></path></svg>