<svg xmlns="http://www.w3.org/2000/svg" width="49" height="49" viewBox="0 0 49 49" fill="none"><path d="M29.0953 13.3441C27.7698 13.3441 26.6953 14.4186 26.6953 15.7441C26.6953 17.0695 27.7698 18.1441 29.0953 18.1441C30.4208 18.1441 31.4953 17.0695 31.4953 15.7441C31.4953 14.4186 30.4208 13.3441 29.0953 13.3441Z" fill="#0080FF"></path><path d="M17.0977 15.7441C17.0977 14.4186 18.1722 13.3441 19.4977 13.3441C20.8231 13.3441 21.8977 14.4186 21.8977 15.7441C21.8977 17.0695 20.8231 18.1441 19.4977 18.1441C18.1722 18.1441 17.0977 17.0695 17.0977 15.7441Z" fill="#0080FF"></path><path d="M25.4969 6.14403C25.4969 5.48129 24.9595 4.94403 24.2969 4.94403C23.6341 4.94403 23.0969 5.48129 23.0969 6.14403V7.34403H15.8969C13.9086 7.34403 12.2969 8.9558 12.2969 10.944V20.544C12.2969 22.5323 13.9086 24.144 15.8969 24.144H32.6969C34.685 24.144 36.2969 22.5323 36.2969 20.544V10.944C36.2969 8.9558 34.685 7.34403 32.6969 7.34403H25.4969V6.14403ZM15.8969 9.74403H32.6969C33.3595 9.74403 33.8969 10.2813 33.8969 10.944V20.544C33.8969 21.2068 33.3595 21.744 32.6969 21.744H15.8969C15.2341 21.744 14.6969 21.2068 14.6969 20.544V10.944C14.6969 10.2813 15.2341 9.74403 15.8969 9.74403Z" fill="#0080FF"></path><path d="M24.8953 43.3402C31.1728 43.2598 34.9631 41.9115 37.1876 39.8818C39.2881 37.9652 39.801 35.6192 39.8826 33.7486H39.8953V32.0938C39.8953 29.6955 37.9513 27.7515 35.553 27.7515H27.8953V27.744H20.6953V27.7515H13.0376C10.6394 27.7515 8.69531 29.6955 8.69531 32.0938V33.7486H8.7081C8.78966 35.6192 9.30244 37.9652 11.403 39.8818C13.6275 41.9115 17.4179 43.2598 23.6953 43.3402V43.344H24.8953V43.3402ZM13.0376 30.1515H35.553C36.6258 30.1515 37.4953 31.021 37.4953 32.0938V33.144C37.4953 34.7991 37.1804 36.6394 35.57 38.1089C33.92 39.6144 30.6805 40.944 24.2953 40.944C17.91 40.944 14.6706 39.6144 13.0207 38.1089C11.4103 36.6394 11.0953 34.7991 11.0953 33.144V32.0938C11.0953 31.021 11.9649 30.1515 13.0376 30.1515Z" fill="#0080FF"></path></svg>