<svg xmlns="http://www.w3.org/2000/svg" width="49" height="49" viewBox="0 0 49 49" fill="none"><path d="M12.2969 17.1157C12.2969 15.7902 13.3714 14.7157 14.6969 14.7157H33.8969C35.2224 14.7157 36.2969 15.7902 36.2969 17.1157V21.9157C36.2969 23.2411 35.2224 24.3157 33.8969 24.3157H14.6969C13.3714 24.3157 12.2969 23.2412 12.2969 21.9157V17.1157ZM33.8969 17.1157H14.6969V21.9157H33.8969V17.1157Z" fill="#0080FF"></path><path d="M29.0953 26.7157C27.7698 26.7157 26.6953 27.7901 26.6953 29.1157V31.5157C26.6953 32.8412 27.7698 33.9157 29.0953 33.9157H33.8953C35.2208 33.9157 36.2953 32.8412 36.2953 31.5157V29.1157C36.2953 27.7901 35.2208 26.7157 33.8953 26.7157H29.0953ZM29.0953 29.1157H33.8953V31.5157H29.0953V29.1157Z" fill="#0080FF"></path><path d="M12.2969 27.9157C12.2969 27.253 12.8341 26.7157 13.4969 26.7157H23.0969C23.7596 26.7157 24.2969 27.253 24.2969 27.9157C24.2969 28.5783 23.7596 29.1157 23.0969 29.1157H13.4969C12.8341 29.1157 12.2969 28.5783 12.2969 27.9157Z" fill="#0080FF"></path><path d="M13.4969 31.5157C12.8341 31.5157 12.2969 32.053 12.2969 32.7157C12.2969 33.3783 12.8341 33.9157 13.4969 33.9157H23.0969C23.7596 33.9157 24.2969 33.3783 24.2969 32.7157C24.2969 32.053 23.7596 31.5157 23.0969 31.5157H13.4969Z" fill="#0080FF"></path><path d="M7.49609 14.7157C7.49609 10.7392 10.7197 7.51569 14.6961 7.51569H33.8961C37.8727 7.51569 41.0961 10.7392 41.0961 14.7157V33.9157C41.0961 37.8922 37.8727 41.1157 33.8961 41.1157H14.6961C10.7197 41.1157 7.49609 37.8922 7.49609 33.9157V14.7157ZM14.6961 9.91569C12.0451 9.91569 9.89609 12.0647 9.89609 14.7157V33.9157C9.89609 36.5667 12.0451 38.7157 14.6961 38.7157H33.8961C36.5471 38.7157 38.6961 36.5667 38.6961 33.9157V14.7157C38.6961 12.0647 36.5471 9.91569 33.8961 9.91569H14.6961Z" fill="#0080FF"></path></svg>