<svg xmlns="http://www.w3.org/2000/svg" width="48" height="48" viewBox="0 0 48 48" fill="none"><path d="M7.20078 7.2002C5.87531 7.2002 4.80078 8.27472 4.80078 9.6002C4.80078 10.9257 5.87531 12.0002 7.20078 12.0002V26.4002C7.20078 30.3768 10.4243 33.6002 14.4008 33.6002H22.8008V38.4002H18.0008C17.338 38.4002 16.8008 38.9376 16.8008 39.6002C16.8008 40.2628 17.338 40.8002 18.0008 40.8002H30.0008C30.6634 40.8002 31.2008 40.2628 31.2008 39.6002C31.2008 38.9376 30.6634 38.4002 30.0008 38.4002H25.2008V33.6002H33.6008C37.5773 33.6002 40.8008 30.3768 40.8008 26.4002V12.0002C42.1263 12.0002 43.2008 10.9257 43.2008 9.6002C43.2008 8.27472 42.1263 7.2002 40.8008 7.2002H7.20078ZM9.60078 12.0002H38.4008V26.4002C38.4008 29.0512 36.2518 31.2002 33.6008 31.2002H14.4008C11.7498 31.2002 9.60078 29.0512 9.60078 26.4002V12.0002Z" fill="#0080FF"></path></svg>