<svg xmlns="http://www.w3.org/2000/svg" width="332" height="199" viewBox="0 0 332 199" fill="none"><path d="M5.62038 178.088C6.42987 186.587 13.0407 189.387 16.2449 189.724L18.7745 190.23L47.6126 193.771L86.5692 196.301L130.079 197.819L162.965 198.325L181.178 197.819L215.076 197.313L228.23 196.807L246.443 195.795L260.103 195.289L282.87 193.265C289.785 192.76 306.143 191.242 316.262 189.218C326.38 187.194 327.898 177.244 327.392 172.522C328.067 165.271 329.517 149.654 329.922 145.202C330.327 140.75 331.44 109.281 331.946 94.1031L329.922 58.688C329.247 50.9303 327.696 33.189 326.886 24.2847C326.077 15.3803 319.803 11.4678 316.768 10.6245L299.566 7.58896L258.586 3.54151L217.605 1.01186L175.107 0L126.538 0.505931L76.4506 3.54151C60.0922 5.22795 25.0481 8.90438 15.7389 10.1186C6.42981 11.3328 4.43982 23.1042 4.60846 28.838L1.06695 69.3125C0.898324 82.1294 0.459887 107.864 0.0551422 108.269C-0.349602 108.674 1.57293 135.758 2.5848 149.25C3.25937 155.321 4.81089 169.588 5.62038 178.088Z" fill="#D9D9D9"></path></svg>